<?xml version="1.0" standalone="no"?>
<!DOCTYPE svg PUBLIC "-//W3C//DTD SVG 20010904//EN"
 "http://www.w3.org/TR/2001/REC-SVG-20010904/DTD/svg10.dtd">
<svg version="1.0" xmlns="http://www.w3.org/2000/svg"
 width="1080.000000pt" height="1080.000000pt" viewBox="0 0 1080.000000 1080.000000"
 preserveAspectRatio="xMidYMid meet">

<g transform="translate(0.000000,1080.000000) scale(0.100000,-0.100000)"
fill="#000000" stroke="none">
<path d="M5055 10729 c-923 -59 -1822 -361 -2604 -877 -676 -445 -1275 -1084
-1682 -1793 -386 -673 -617 -1408 -691 -2204 -17 -183 -17 -727 0 -910 135
-1444 799 -2717 1902 -3647 540 -455 1249 -831 1945 -1031 1037 -299 2160
-272 3190 74 402 136 862 362 1232 605 498 328 968 772 1329 1255 532 714 878
1545 1008 2424 40 270 50 417 50 775 0 358 -10 505 -50 775 -130 879 -476
1711 -1008 2423 -358 479 -836 931 -1329 1256 -374 246 -840 474 -1247 609
-657 219 -1356 310 -2045 266z m-1901 -4766 c237 -348 437 -638 444 -645 9
-10 12 117 12 635 l0 647 345 0 345 0 0 -1180 0 -1180 -347 0 -348 0 -435 640
c-239 351 -438 639 -442 640 -5 0 -8 -288 -8 -640 l0 -640 -345 0 -345 0 0
1180 0 1180 347 -2 346 -3 431 -632z m2266 412 l0 -225 -330 0 -330 0 0 225 0
225 330 0 330 0 0 -225z m0 -1280 l0 -855 -330 0 -330 0 0 855 0 855 330 0
330 0 0 -855z m1072 328 c3 -476 5 -532 21 -573 43 -109 146 -159 268 -130 41
10 64 24 105 64 89 87 88 78 92 664 l3 502 330 0 329 0 0 -855 0 -855 -305 0
-305 0 0 133 0 133 -98 -96 c-79 -77 -114 -104 -182 -137 -103 -51 -206 -73
-338 -73 -293 0 -478 137 -555 409 -21 73 -21 97 -25 709 l-3 632 330 0 330 0
3 -527z m2248 -853 l0 -330 -350 0 -350 0 0 330 0 330 350 0 350 0 0 -330z"/>
</g>
</svg>
